<mxfile host="app.diagrams.net" modified="2024-04-28T18:16:28.783Z" agent="Mozilla/5.0 (Windows NT 10.0; Win64; x64) AppleWebKit/537.36 (KHTML, like Gecko) Chrome/124.0.0.0 Safari/537.36" etag="qwEP7kI86daGWJ_fPJtW" version="24.3.1" type="github">
  <diagram name="Page-1" id="JQpIwsz5_8UNzbuvZTY3">
    <mxGraphModel dx="700" dy="406" grid="1" gridSize="10" guides="1" tooltips="1" connect="1" arrows="1" fold="1" page="1" pageScale="1" pageWidth="583" pageHeight="827" math="0" shadow="0">
      <root>
        <mxCell id="0" />
        <mxCell id="1" parent="0" />
        <mxCell id="aA6D1cgxkeS20unHb_o9-34" value="" style="group" vertex="1" connectable="0" parent="1">
          <mxGeometry x="60" y="50" width="460" height="140" as="geometry" />
        </mxCell>
        <mxCell id="aA6D1cgxkeS20unHb_o9-2" value="Identity" style="rounded=0;whiteSpace=wrap;html=1;" vertex="1" parent="aA6D1cgxkeS20unHb_o9-34">
          <mxGeometry x="180.71428571428572" width="98.57142857142858" height="42" as="geometry" />
        </mxCell>
        <mxCell id="aA6D1cgxkeS20unHb_o9-3" value="" style="endArrow=none;html=1;rounded=0;entryX=0.5;entryY=1;entryDx=0;entryDy=0;" edge="1" parent="aA6D1cgxkeS20unHb_o9-34" target="aA6D1cgxkeS20unHb_o9-2">
          <mxGeometry width="50" height="50" relative="1" as="geometry">
            <mxPoint x="230.00000000000003" y="70" as="sourcePoint" />
            <mxPoint x="273.80952380952385" y="98" as="targetPoint" />
          </mxGeometry>
        </mxCell>
        <mxCell id="aA6D1cgxkeS20unHb_o9-4" value="" style="endArrow=none;html=1;rounded=0;" edge="1" parent="aA6D1cgxkeS20unHb_o9-34">
          <mxGeometry width="50" height="50" relative="1" as="geometry">
            <mxPoint x="32.85714285714286" y="70" as="sourcePoint" />
            <mxPoint x="427.14285714285717" y="70" as="targetPoint" />
          </mxGeometry>
        </mxCell>
        <mxCell id="aA6D1cgxkeS20unHb_o9-8" value="" style="group" vertex="1" connectable="0" parent="aA6D1cgxkeS20unHb_o9-34">
          <mxGeometry y="70" width="65.71428571428572" height="70" as="geometry" />
        </mxCell>
        <mxCell id="aA6D1cgxkeS20unHb_o9-5" value="" style="endArrow=none;html=1;rounded=0;" edge="1" parent="aA6D1cgxkeS20unHb_o9-8">
          <mxGeometry width="50" height="50" relative="1" as="geometry">
            <mxPoint x="32.85714285714286" y="28" as="sourcePoint" />
            <mxPoint x="32.85714285714286" as="targetPoint" />
          </mxGeometry>
        </mxCell>
        <mxCell id="aA6D1cgxkeS20unHb_o9-7" value="" style="rounded=1;whiteSpace=wrap;html=1;" vertex="1" parent="aA6D1cgxkeS20unHb_o9-8">
          <mxGeometry y="28" width="65.71428571428572" height="42" as="geometry" />
        </mxCell>
        <mxCell id="aA6D1cgxkeS20unHb_o9-25" value="&lt;font style=&quot;font-size: 7px;&quot;&gt;Google Account&lt;/font&gt;" style="text;html=1;align=center;verticalAlign=middle;whiteSpace=wrap;rounded=0;" vertex="1" parent="aA6D1cgxkeS20unHb_o9-8">
          <mxGeometry y="28" width="65.71428571428572" height="42" as="geometry" />
        </mxCell>
        <mxCell id="aA6D1cgxkeS20unHb_o9-12" value="" style="group" vertex="1" connectable="0" parent="aA6D1cgxkeS20unHb_o9-34">
          <mxGeometry x="98.57142857142858" y="70" width="65.71428571428572" height="70" as="geometry" />
        </mxCell>
        <mxCell id="aA6D1cgxkeS20unHb_o9-13" value="" style="endArrow=none;html=1;rounded=0;" edge="1" parent="aA6D1cgxkeS20unHb_o9-12">
          <mxGeometry width="50" height="50" relative="1" as="geometry">
            <mxPoint x="32.85714285714286" y="28" as="sourcePoint" />
            <mxPoint x="32.85714285714286" as="targetPoint" />
          </mxGeometry>
        </mxCell>
        <mxCell id="aA6D1cgxkeS20unHb_o9-14" value="" style="rounded=1;whiteSpace=wrap;html=1;" vertex="1" parent="aA6D1cgxkeS20unHb_o9-12">
          <mxGeometry y="28" width="65.71428571428572" height="42" as="geometry" />
        </mxCell>
        <mxCell id="aA6D1cgxkeS20unHb_o9-30" value="&lt;font style=&quot;font-size: 7px;&quot;&gt;Google Group&lt;/font&gt;" style="text;html=1;align=center;verticalAlign=middle;whiteSpace=wrap;rounded=0;" vertex="1" parent="aA6D1cgxkeS20unHb_o9-12">
          <mxGeometry y="28" width="65.71428571428572" height="42" as="geometry" />
        </mxCell>
        <mxCell id="aA6D1cgxkeS20unHb_o9-15" value="" style="group" vertex="1" connectable="0" parent="aA6D1cgxkeS20unHb_o9-34">
          <mxGeometry x="197.14285714285717" y="70" width="65.71428571428572" height="70" as="geometry" />
        </mxCell>
        <mxCell id="aA6D1cgxkeS20unHb_o9-16" value="" style="endArrow=none;html=1;rounded=0;" edge="1" parent="aA6D1cgxkeS20unHb_o9-15">
          <mxGeometry width="50" height="50" relative="1" as="geometry">
            <mxPoint x="32.85714285714286" y="28" as="sourcePoint" />
            <mxPoint x="32.85714285714286" as="targetPoint" />
          </mxGeometry>
        </mxCell>
        <mxCell id="aA6D1cgxkeS20unHb_o9-17" value="" style="rounded=1;whiteSpace=wrap;html=1;" vertex="1" parent="aA6D1cgxkeS20unHb_o9-15">
          <mxGeometry y="28" width="65.71428571428572" height="42" as="geometry" />
        </mxCell>
        <mxCell id="aA6D1cgxkeS20unHb_o9-31" value="&lt;span style=&quot;font-size: 7px;&quot;&gt;Cloud Identity&lt;/span&gt;&lt;div&gt;&lt;span style=&quot;font-size: 7px;&quot;&gt;Account&lt;/span&gt;&lt;/div&gt;" style="text;html=1;align=center;verticalAlign=middle;whiteSpace=wrap;rounded=0;" vertex="1" parent="aA6D1cgxkeS20unHb_o9-15">
          <mxGeometry y="28" width="65.71428571428572" height="42" as="geometry" />
        </mxCell>
        <mxCell id="aA6D1cgxkeS20unHb_o9-18" value="" style="group" vertex="1" connectable="0" parent="aA6D1cgxkeS20unHb_o9-34">
          <mxGeometry x="295.7142857142857" y="70" width="65.71428571428572" height="70" as="geometry" />
        </mxCell>
        <mxCell id="aA6D1cgxkeS20unHb_o9-19" value="" style="endArrow=none;html=1;rounded=0;" edge="1" parent="aA6D1cgxkeS20unHb_o9-18">
          <mxGeometry width="50" height="50" relative="1" as="geometry">
            <mxPoint x="32.85714285714286" y="28" as="sourcePoint" />
            <mxPoint x="32.85714285714286" as="targetPoint" />
          </mxGeometry>
        </mxCell>
        <mxCell id="aA6D1cgxkeS20unHb_o9-20" value="" style="rounded=1;whiteSpace=wrap;html=1;" vertex="1" parent="aA6D1cgxkeS20unHb_o9-18">
          <mxGeometry y="28" width="65.71428571428572" height="42" as="geometry" />
        </mxCell>
        <mxCell id="aA6D1cgxkeS20unHb_o9-33" value="&lt;font style=&quot;font-size: 6px;&quot;&gt;Google Workspace Account&lt;/font&gt;" style="text;html=1;align=center;verticalAlign=middle;whiteSpace=wrap;rounded=0;" vertex="1" parent="aA6D1cgxkeS20unHb_o9-18">
          <mxGeometry y="28" width="65.71428571428572" height="42" as="geometry" />
        </mxCell>
        <mxCell id="aA6D1cgxkeS20unHb_o9-21" value="" style="group" vertex="1" connectable="0" parent="aA6D1cgxkeS20unHb_o9-34">
          <mxGeometry x="394.28571428571433" y="70" width="65.71428571428572" height="70" as="geometry" />
        </mxCell>
        <mxCell id="aA6D1cgxkeS20unHb_o9-22" value="" style="endArrow=none;html=1;rounded=0;" edge="1" parent="aA6D1cgxkeS20unHb_o9-21">
          <mxGeometry width="50" height="50" relative="1" as="geometry">
            <mxPoint x="32.85714285714286" y="28" as="sourcePoint" />
            <mxPoint x="32.85714285714286" as="targetPoint" />
          </mxGeometry>
        </mxCell>
        <mxCell id="aA6D1cgxkeS20unHb_o9-23" value="" style="rounded=1;whiteSpace=wrap;html=1;" vertex="1" parent="aA6D1cgxkeS20unHb_o9-21">
          <mxGeometry y="28" width="65.71428571428572" height="42" as="geometry" />
        </mxCell>
        <mxCell id="aA6D1cgxkeS20unHb_o9-32" value="&lt;font style=&quot;font-size: 7px;&quot;&gt;Service Account&lt;/font&gt;" style="text;html=1;align=center;verticalAlign=middle;whiteSpace=wrap;rounded=0;" vertex="1" parent="aA6D1cgxkeS20unHb_o9-21">
          <mxGeometry y="28" width="65.71428571428572" height="42" as="geometry" />
        </mxCell>
      </root>
    </mxGraphModel>
  </diagram>
</mxfile>
